<svg width="100" height="100" viewBox="0 0 100 100" fill="none" xmlns="http://www.w3.org/2000/svg">
<rect width="100" height="100" rx="24" fill="#AA755F"/>
<path d="M87 12.0094C87 12.0094 58.35 10.6219 35.775 41.5594C18.45 65.2969 12 87.0094 12 87.0094L19.275 83.2594C24.675 73.8844 27.4875 70.0219 32.775 64.5094C42.2625 67.2844 52.1625 66.9469 60.75 57.0094C53.25 54.9094 47.25 55.3969 38.4 56.2969C48.3375 49.5094 55.125 48.0094 64.5 49.5094L68.25 42.0094C61.5 40.7344 57 40.6219 50.325 42.1594C57.7125 36.9469 62.85 34.0219 72 34.5094L76.5375 27.2719C70.6875 26.8594 67.1625 27.4969 60.45 29.1469C66.4875 23.6719 72 21.1969 80.025 20.7094C80.025 20.7094 83.9625 13.6219 87 12.0094Z" fill="white"/>
</svg>
