<svg width="100" height="100" viewBox="0 0 100 100" fill="none" xmlns="http://www.w3.org/2000/svg">
<rect width="100" height="100" rx="24" fill="#AA755F"/>
<path d="M32.8333 13C30.6232 13 28.5036 13.878 26.9408 15.4408C25.378 17.0036 24.5 19.1232 24.5 21.3333V38C24.5 40.2101 23.622 42.3298 22.0592 43.8926C20.4964 45.4554 18.3768 46.3333 16.1667 46.3333H12V54.6667H16.1667C18.3768 54.6667 20.4964 55.5446 22.0592 57.1074C23.622 58.6702 24.5 60.7899 24.5 63V79.6667C24.5 81.8768 25.378 83.9964 26.9408 85.5592C28.5036 87.122 30.6232 88 32.8333 88H41.1667V79.6667H32.8333V58.8333C32.8333 56.6232 31.9554 54.5036 30.3926 52.9408C28.8298 51.378 26.7101 50.5 24.5 50.5C26.7101 50.5 28.8298 49.622 30.3926 48.0592C31.9554 46.4964 32.8333 44.3768 32.8333 42.1667V21.3333H41.1667V13M66.1667 13C68.3768 13 70.4964 13.878 72.0592 15.4408C73.622 17.0036 74.5 19.1232 74.5 21.3333V38C74.5 40.2101 75.378 42.3298 76.9408 43.8926C78.5036 45.4554 80.6232 46.3333 82.8333 46.3333H87V54.6667H82.8333C80.6232 54.6667 78.5036 55.5446 76.9408 57.1074C75.378 58.6702 74.5 60.7899 74.5 63V79.6667C74.5 81.8768 73.622 83.9964 72.0592 85.5592C70.4964 87.122 68.3768 88 66.1667 88H57.8333V79.6667H66.1667V58.8333C66.1667 56.6232 67.0446 54.5036 68.6074 52.9408C70.1702 51.378 72.2899 50.5 74.5 50.5C72.2899 50.5 70.1702 49.622 68.6074 48.0592C67.0446 46.4964 66.1667 44.3768 66.1667 42.1667V21.3333H57.8333V13H66.1667Z" fill="white"/>
</svg>
