<svg width="100" height="100" viewBox="0 0 100 100" fill="none" xmlns="http://www.w3.org/2000/svg">
<rect width="100" height="100" rx="24" fill="#32DE84"/>
<path d="M12.9978 74.0794C10.0407 74.0794 7 76.449 7 80.5967C7 84.3885 9.67349 87.0668 12.9978 87.0668C15.7419 87.0668 16.9649 85.2249 16.9649 85.2249V86.0278C16.9649 86.4072 17.3237 86.8306 17.7678 86.8306H19.7513V74.3627H16.9649V75.9448C16.9649 75.9448 15.7317 74.0794 12.9978 74.0794ZM13.4942 76.6288C15.9285 76.6288 17.2055 78.7697 17.2055 80.5958C17.2055 82.6297 15.6893 84.5614 13.4994 84.5614C11.6687 84.5614 9.83483 83.0787 9.83483 80.5689C9.83483 78.3034 11.413 76.6288 13.4942 76.6288Z" fill="black"/>
<path d="M23.624 86.8305C23.1959 86.8305 22.8211 86.5234 22.8211 86.0276V74.3626H25.6075V75.9055C26.2389 74.9564 27.4724 74.0754 29.3658 74.0754C32.4605 74.0754 34.1084 76.5424 34.1084 78.8491V86.8305H32.1721C31.6643 86.8305 31.322 86.4055 31.322 85.9804V79.4631C31.322 78.1844 30.5385 76.6315 28.7267 76.6315C26.7716 76.6315 25.6075 78.4792 25.6075 80.2187V86.8305L23.624 86.8305Z" fill="black"/>
<path d="M42.2312 74.0795C39.2741 74.0795 36.2334 76.4491 36.2334 80.5968C36.2334 84.3887 38.9069 87.0669 42.2312 87.0669C44.9753 87.0669 46.1983 85.2251 46.1983 85.2251V86.0279C46.1983 86.4074 46.557 86.8308 47.0011 86.8308H48.9847V68.1289H46.1983V75.945C46.1983 75.945 44.965 74.0795 42.2312 74.0795ZM42.7275 76.629C45.1619 76.629 46.4388 78.7699 46.4388 80.5959C46.4388 82.6299 44.9227 84.5615 42.7327 84.5615C40.902 84.5615 39.0682 83.0789 39.0682 80.5691C39.0682 78.3036 40.6463 76.629 42.7275 76.629Z" fill="black"/>
<path d="M52.8573 86.8305C52.4292 86.8305 52.0544 86.5235 52.0544 86.0277V74.3626H54.8408V76.4406C55.3204 75.2765 56.3554 74.2209 58.1939 74.2209C58.7065 74.2209 59.1857 74.3154 59.1857 74.3154V77.1962C59.1857 77.1962 58.5873 76.9601 57.8634 76.9601C55.9083 76.9601 54.8408 78.8078 54.8408 80.5473V86.8305H52.8573Z" fill="black"/>
<path d="M76.0928 86.8304C75.6647 86.8304 75.29 86.5234 75.29 86.0276V74.3625H78.0764V86.8305L76.0928 86.8304Z" fill="black"/>
<path d="M86.2466 74.0795C83.2894 74.0795 80.2487 76.4491 80.2487 80.5968C80.2487 84.3887 82.9222 87.0669 86.2466 87.0669C88.9906 87.0669 90.2136 85.2251 90.2136 85.2251V86.0279C90.2136 86.4074 90.5724 86.8308 91.0165 86.8308H93V68.1289H90.2136V75.945C90.2136 75.945 88.9804 74.0795 86.2466 74.0795ZM86.7429 76.629C89.1772 76.629 90.4542 78.7699 90.4542 80.5959C90.4542 82.6299 88.9381 84.5615 86.7481 84.5615C84.9174 84.5615 83.0836 83.0789 83.0836 80.5691C83.0836 78.3036 84.6617 76.629 86.7429 76.629Z" fill="black"/>
<path d="M76.6636 71.674C77.6811 71.674 78.5059 70.8492 78.5059 69.8316C78.5059 68.8141 77.6811 67.9893 76.6636 67.9893C75.646 67.9893 74.8212 68.8141 74.8212 69.8316C74.8212 70.8492 75.646 71.674 76.6636 71.674Z" fill="black"/>
<path d="M66.5344 74.0752C63.4375 74.0752 60.035 76.3869 60.035 80.5745C60.035 84.3905 62.9331 87.0672 66.5276 87.0672C70.9575 87.0672 73.1206 83.506 73.1206 80.5987C73.1206 77.0311 70.3352 74.0752 66.5344 74.0752ZM66.5445 76.6773C68.6861 76.6773 70.2835 78.4034 70.2835 80.5824C70.2835 82.7992 68.5878 84.5098 66.5509 84.5098C64.66 84.5098 62.822 82.971 62.822 80.6196C62.822 78.2291 64.5701 76.6773 66.5445 76.6773Z" fill="black"/>
<path d="M70.9878 26.5206L78.1169 14.1709C78.5192 13.4786 78.276 12.5991 77.593 12.1968C76.91 11.7945 76.0212 12.0284 75.6283 12.7207L68.4055 25.2295C62.8949 22.7128 56.692 21.3094 50.0213 21.3094C43.3506 21.3094 37.1476 22.7128 31.637 25.2295L24.4143 12.7207C24.012 12.0284 23.1325 11.7945 22.4402 12.1968C21.7479 12.5991 21.514 13.4786 21.9163 14.1709L29.0454 26.5206C16.7518 33.182 8.42508 45.6253 7.0498 60.1923H92.9928C91.6175 45.6252 83.2907 33.1819 70.9878 26.5206ZM30.2898 48.1233C28.297 48.1233 26.6878 46.5047 26.6878 44.5213C26.6878 42.5285 28.3063 40.9193 30.2898 40.9193C32.2826 40.9193 33.8918 42.5379 33.8918 44.5213C33.9012 46.5047 32.2826 48.1233 30.2898 48.1233ZM69.7435 48.1233C67.7507 48.1233 66.1415 46.5047 66.1415 44.5213C66.1415 42.5285 67.7601 40.9193 69.7435 40.9193C71.7363 40.9193 73.3455 42.5379 73.3455 44.5213C73.3549 46.5047 71.7363 48.1233 69.7435 48.1233Z" fill="black"/>
</svg>
