<svg width="100" height="100" viewBox="0 0 100 100" fill="none" xmlns="http://www.w3.org/2000/svg">
<rect width="100" height="100" rx="24" fill="white"/>
<path fill-rule="evenodd" clip-rule="evenodd" d="M83.775 25.8683C84.01 26.7403 84.435 26.882 85.05 26.2933C86.3084 25.9433 87.5834 25.66 88.875 25.4433C89.8444 25.2636 90.5529 25.547 91 26.2933C89.1321 27.1158 87.1487 27.6825 85.05 27.9933C86.4274 34.4255 85.1524 40.2338 81.225 45.4183C80.6419 44.9884 80.0754 44.5634 79.525 44.1433C76.7799 41.4972 73.6634 41.0014 70.175 42.6558C64.9335 47.8974 59.6915 53.1393 54.45 58.3808C53.9005 58.589 53.3335 58.66 52.75 58.5933C48.3583 54.4848 44.1083 50.2348 40 45.8433C45.3683 40.2623 50.8226 34.7373 56.3625 29.2683C57.3583 27.0997 57.6418 24.8331 57.2125 22.4683C56.6213 21.263 55.8423 20.2713 54.875 19.4933C54.1789 18.9813 54.0373 18.4147 54.45 17.7933C59.5602 14.1094 65.2267 12.9761 71.45 14.3933C71.6778 12.349 72.1738 10.3656 72.9375 8.4433C73.3672 8.08773 73.8632 7.94606 74.425 8.0183C74.224 10.4507 73.6575 12.7882 72.725 15.0308C78.0426 17.0195 81.7257 20.632 83.775 25.8683ZM65.5 19.4933C67.801 20.1144 68.0135 21.1061 66.1375 22.4683C64.5952 21.6766 64.3827 20.685 65.5 19.4933ZM78.25 31.8183C80.4328 32.5804 80.5038 33.5721 78.4625 34.7933C76.5929 33.867 76.5219 32.8753 78.25 31.8183Z" fill="#3BD781"/>
<path fill-rule="evenodd" clip-rule="evenodd" d="M54.5375 17.8375C54.1248 18.4588 54.2663 19.0255 54.9625 19.5375C56.6638 22.3817 56.5932 25.215 54.75 28.0375C49.1872 33.3865 43.8747 38.9115 38.8125 44.6124C37.9073 45.304 37.0573 46.0831 36.2625 46.9499C35.5541 47.2333 34.8458 47.2333 34.1375 46.9499C31.2333 44.0458 28.3291 41.1416 25.425 38.2374C25.0999 37.572 25.1707 37.0053 25.6375 36.5375C32.4157 30.468 38.9324 24.093 45.1875 17.4125C46.2813 16.5755 47.5563 16.1505 49.0125 16.1375C50.9866 16.3711 52.8281 16.9378 54.5375 17.8375Z" fill="#4183F0"/>
<path fill-rule="evenodd" clip-rule="evenodd" d="M54.9625 19.5376C55.9298 20.3156 56.7088 21.3073 57.3 22.5126C57.7292 24.8774 57.4458 27.144 56.45 29.3126C50.9101 34.7816 45.4558 40.3066 40.0875 45.8876C39.5208 45.6042 39.0958 45.1793 38.8125 44.6126C43.8747 38.9116 49.1872 33.3866 54.75 28.0376C56.5932 25.2152 56.6638 22.3819 54.9625 19.5376Z" fill="#37BC71"/>
<path opacity="0.725" fill-rule="evenodd" clip-rule="evenodd" d="M88.9625 25.4874C89.7126 25.0788 90.5626 24.9371 91.5125 25.0624C91.6132 25.6111 91.4717 26.0361 91.0875 26.3374C90.6404 25.5911 89.9319 25.3077 88.9625 25.4874Z" fill="#1F683E"/>
<path opacity="0.282" fill-rule="evenodd" clip-rule="evenodd" d="M83.8625 25.9126C84.2412 26.1718 84.6662 26.3134 85.1375 26.3376C84.5225 26.9263 84.0975 26.7846 83.8625 25.9126Z" fill="#164B2D"/>
<path opacity="0.929" fill-rule="evenodd" clip-rule="evenodd" d="M45.1875 17.4126C38.9324 24.0931 32.4157 30.4681 25.6375 36.5376C31.8926 29.8571 38.4093 23.4821 45.1875 17.4126Z" fill="#2E5CAA"/>
<path fill-rule="evenodd" clip-rule="evenodd" d="M79.6125 44.1875C77.2214 43.2111 74.813 43.1403 72.3875 43.975C66.5204 49.4167 60.7829 55.0127 55.175 60.7625C55.0122 60.5262 54.7997 60.3847 54.5375 60.3375C53.829 59.9125 53.2625 59.346 52.8375 58.6375C53.421 58.7042 53.988 58.6333 54.5375 58.425C59.779 53.1835 65.021 47.9417 70.2625 42.7C73.7509 41.0457 76.8674 41.5415 79.6125 44.1875Z" fill="#37BC6F"/>
<path fill-rule="evenodd" clip-rule="evenodd" d="M79.6125 44.1875C80.1629 44.6076 80.7294 45.0326 81.3125 45.4625C82.6283 46.8592 83.1948 48.5592 83.0125 50.5625C83.1213 52.1023 82.7673 53.5188 81.95 54.8125C75.504 61.2585 69.0585 67.7041 62.6125 74.15C62.1875 74.4335 61.7625 74.4335 61.3375 74.15C58.2915 71.1041 55.246 68.0585 52.2 65.0125C51.9165 64.446 51.9165 63.8791 52.2 63.3125C53.243 62.4876 54.022 61.4957 54.5375 60.3375C54.7997 60.3847 55.0122 60.5262 55.175 60.7625C60.7829 55.0127 66.5204 49.4167 72.3875 43.975C74.813 43.1403 77.2215 43.2111 79.6125 44.1875Z" fill="#4082EE"/>
<path opacity="0.998" fill-rule="evenodd" clip-rule="evenodd" d="M20.5375 43.3374C25.6677 43.3687 28.501 45.9187 29.0375 50.9874C29.0472 54.013 27.7722 56.3505 25.2125 57.9999C22.2548 60.2426 18.9965 61.9426 15.4375 63.0999C10.5815 64.4744 8.5273 62.7034 9.275 57.7874C10.7405 53.1532 13.078 49.045 16.2875 45.4624C17.5748 44.424 18.9915 43.7157 20.5375 43.3374ZM20.5375 47.5874C23.9977 47.5792 25.3436 49.2792 24.575 52.6874C21.4244 55.9965 17.6702 57.9795 13.3125 58.6374C14.886 54.3436 17.2943 50.6602 20.5375 47.5874Z" fill="#072B3B"/>
<path opacity="0.998" fill-rule="evenodd" clip-rule="evenodd" d="M45.6125 70.5376C52.965 69.7445 56.294 73.0026 55.6 80.3126C55.0853 81.6977 54.3063 82.9017 53.2625 83.9251C49.2388 87.1411 44.7055 89.3366 39.6625 90.5126C37.149 90.3366 35.874 88.9907 35.8375 86.4751C36.7726 81.8426 38.6851 77.6636 41.575 73.9376C42.7531 72.5423 44.0989 71.4088 45.6125 70.5376ZM47.3125 74.3626C50.8272 74.4765 52.1732 76.1765 51.35 79.4626C48.1364 82.4865 44.4531 84.753 40.3 86.2626C41.4325 81.5897 43.77 77.6232 47.3125 74.3626Z" fill="#072B3B"/>
<ellipse cx="66" cy="20.9499" rx="1.5" ry="1.55" fill="white"/>
<circle cx="78.5" cy="33.3" r="1.5" fill="white"/>
</svg>
