<svg width="100" height="100" viewBox="0 0 100 100" fill="none" xmlns="http://www.w3.org/2000/svg">
<rect width="100" height="100" rx="24" fill="white"/>
<path d="M17.124 75.9548C19.8892 73.1896 24.3724 73.1896 27.1377 75.9548C29.9029 78.72 29.9029 83.2037 27.1377 85.9689L24.3212 88.7853C24.0336 89.073 23.6922 89.3013 23.3163 89.457C22.9405 89.6127 22.5376 89.6928 22.1308 89.6928C21.724 89.6928 21.3212 89.6127 20.9453 89.457C20.5695 89.3013 20.228 89.073 19.9404 88.7853L17.124 85.9689C14.3587 83.2037 14.3587 78.72 17.124 75.9548ZM82.5502 75.9548C79.785 73.1896 75.3018 73.1896 72.5365 75.9548C69.7713 78.72 69.7713 83.2037 72.5365 85.9689L75.353 88.7853C75.6406 89.073 75.9821 89.3013 76.358 89.457C76.7339 89.6127 77.1367 89.6929 77.5436 89.6929C77.9504 89.6929 78.3533 89.6127 78.7292 89.457C79.105 89.3013 79.4466 89.073 79.7342 88.7853L82.5502 85.9689C85.3155 83.2037 85.3155 78.72 82.5502 75.9548Z" fill="#C6FF00"/>
<path d="M10 47.282C10 38.6511 19.2901 33.2106 26.8178 37.4339C28.429 38.3379 29.7938 39.6234 30.7926 41.1777C31.7913 42.732 32.3935 44.5076 32.5462 46.3488L35.0275 76.2699C35.0553 76.6055 35.0132 76.9433 34.9038 77.2619C34.7945 77.5804 34.6203 77.8728 34.3922 78.1206C34.164 78.3684 33.887 78.5662 33.5786 78.7015C33.2702 78.8368 32.937 78.9067 32.6002 78.9067H12.4356C11.7897 78.9067 11.1703 78.6502 10.7135 78.1935C10.2568 77.7368 10.0001 77.1174 10 76.4715V47.282Z" fill="#4285F4"/>
<path d="M90.0002 47.282C90.0002 38.6511 80.7097 33.2106 73.1824 37.4339C71.5711 38.3379 70.2062 39.6234 69.2075 41.1777C68.2087 42.732 67.6066 44.5076 67.4539 46.3488L64.9727 76.2699C64.9448 76.6055 64.9869 76.9433 65.0962 77.2619C65.2055 77.5805 65.3798 77.8729 65.6079 78.1208C65.836 78.3686 66.113 78.5664 66.4215 78.7017C66.7299 78.8369 67.0631 78.9068 67.3999 78.9067H87.5645C87.8844 78.9067 88.2011 78.8437 88.4966 78.7213C88.7921 78.5989 89.0606 78.4195 89.2868 78.1933C89.513 77.9672 89.6923 77.6987 89.8148 77.4032C89.9372 77.1077 90.0002 76.7909 90.0002 76.4711V47.282Z" fill="#4285F4"/>
<path d="M24.2292 46.3729C24.2292 46.3729 34.2658 53.143 50.0423 53.143C65.8189 53.143 75.8554 46.3729 75.8554 46.3729V40.9193L68.9165 33.6516L50.0423 40.6281L31.1681 33.6516L24.2292 40.9193V46.3729Z" fill="white"/>
<path d="M75.7286 39.9718C75.6137 39.2196 75.4651 38.4728 75.2834 37.7338C74.7891 35.7166 74.0537 33.7663 73.093 31.9249C71.5672 28.9981 69.4984 26.3883 66.9969 24.2349C65.9822 23.3599 64.9015 22.5645 63.7645 21.8556C63.7745 21.8392 63.7833 21.8216 63.7933 21.8052C64.3153 20.904 64.8381 20.004 65.3601 19.1032L66.8914 16.464C67.2582 15.8328 67.625 15.2 67.9902 14.5684C68.1748 14.2499 68.2829 13.8929 68.3061 13.5255C68.3293 13.1581 68.2669 12.7903 68.1238 12.4511C67.928 11.9834 67.5864 11.5914 67.1498 11.3335C66.7099 11.0737 66.1985 10.961 65.6901 11.0119C65.3172 11.0504 64.9586 11.1765 64.6437 11.38C64.3288 11.5835 64.0664 11.8585 63.8781 12.1828C63.5113 12.8144 63.1445 13.4468 62.7789 14.0784L61.2477 16.7172C60.7261 17.6184 60.2029 18.5184 59.6813 19.4192C59.6245 19.5176 59.5665 19.616 59.5097 19.7156C59.4305 19.684 59.3521 19.6524 59.2729 19.6224C56.2308 18.4649 52.9982 17.8898 49.7436 17.9272C46.9208 17.9527 44.1211 18.4384 41.4547 19.3652C41.1535 19.4696 40.8563 19.5808 40.5611 19.6964C40.5083 19.6044 40.4543 19.5124 40.4011 19.4204C39.8795 18.5196 39.3563 17.6196 38.8347 16.7184L37.3035 14.0796C36.9366 13.448 36.5698 12.8156 36.2042 12.1839C35.9781 11.7938 35.6454 11.4761 35.2452 11.2681C34.8451 11.0601 34.3939 10.9704 33.9446 11.0095C33.587 11.0398 33.2409 11.151 32.9326 11.3347C32.3983 11.6515 32.0099 12.1657 31.8514 12.7664C31.6894 13.3757 31.776 14.0244 32.0922 14.57L33.191 16.4652L34.7222 19.1044C35.2442 20.0052 35.767 20.9052 36.2886 21.8064L36.3015 21.8288C35.2515 22.4809 34.2491 23.2066 33.3018 24.0005C32.7362 24.475 32.1909 24.9734 31.6674 25.4941C30.6244 26.5306 29.6708 27.6533 28.8166 28.8501C28.1161 29.8306 27.4852 30.859 26.9286 31.9278C25.6637 34.3522 24.7913 36.9618 24.3437 39.6594C24.3261 39.7642 24.3097 39.8698 24.2933 39.9746C24.2353 40.3528 24.1857 40.7323 24.1445 41.1126H75.8734C75.8322 40.7323 75.7826 40.3528 75.7246 39.9746L75.7286 39.9718Z" fill="#34A853"/>
<path d="M63.4621 33.9632C64.4973 33.2748 64.6477 31.6816 63.7981 30.4052C62.9485 29.1284 61.4209 28.652 60.386 29.3404C59.3512 30.0292 59.2008 31.6224 60.05 32.8988C60.8997 34.1756 62.4273 34.6521 63.4621 33.9632ZM40.0126 32.8968C40.8622 31.62 40.7118 30.0272 39.6766 29.3384C38.6418 28.6496 37.1142 29.1264 36.2646 30.4028C35.4154 31.6796 35.5658 33.2728 36.6006 33.9612C37.6354 34.6501 39.163 34.1732 40.0126 32.8968Z" fill="#202124"/>
<path d="M24.2292 43.1335H75.8554V63.6782C75.8554 77.9343 64.2985 89.4908 50.0423 89.4908C35.7862 89.4908 24.2292 77.9343 24.2292 63.6782V43.1335Z" fill="#34A853"/>
</svg>
