<svg width="100" height="100" viewBox="0 0 100 100" fill="none" xmlns="http://www.w3.org/2000/svg">
<rect width="100" height="100" rx="24" fill="#AA755F"/>
<path d="M50 14C28 14 10 28.4 10 46C10 54.4 14 62.4 21.2 68C21.2 70.4 19.6 76.8 10 86C10 86 24 86 36 76C40.4 77.2 45.2 78 50 78C72 78 90 63.6 90 46C90 28.4 72 14 50 14ZM54 62H46V54H54V62ZM61.2 42C60 43.6 58.4 44.4 56.8 45.2C55.6 46 55.2 46.4 54.8 47.2C54 48 54 48.8 54 50H46C46 48 46.4 46.8 47.2 45.6C48 44.8 49.6 43.6 51.6 42.4C52.8 42 53.6 41.2 54 40.4C54.4 39.6 54.8 38.4 54.8 37.6C54.8 36.4 54.4 35.6 53.6 34.8C52.8 34 51.6 33.6 50.4 33.6C49.2 33.6 48.4 34 47.6 34.4C46.8 34.8 46.4 35.6 46.4 36.8H38.4C38.8 34 40 31.6 42 30C44 28.4 46.8 28 50.4 28C54 28 57.2 28.8 59.2 30.4C61.2 32 62.4 34.4 62.4 37.2C62.8 38.8 62.4 40.4 61.2 42Z" fill="white"/>
</svg>
