<svg width="100" height="100" viewBox="0 0 100 100" fill="none" xmlns="http://www.w3.org/2000/svg">
<rect width="100" height="100" rx="24" fill="white"/>
<path d="M76.8471 85.0179C76.9573 85.3649 76.9341 85.7406 76.7821 86.0714C76.63 86.4022 76.3599 86.6644 76.0247 86.8066C75.6895 86.9488 75.3133 86.9608 74.9698 86.8403C74.6262 86.7198 74.3399 86.4754 74.1671 86.1549L70.645 79.6169C70.5033 79.3534 70.4181 79.0632 70.3949 78.7648C70.3717 78.4665 70.4109 78.1666 70.5102 77.8843C70.6094 77.602 70.7664 77.3434 70.9712 77.1252C71.1759 76.907 71.4239 76.7339 71.6994 76.617C71.9748 76.5 72.2716 76.4418 72.5708 76.446C72.8701 76.4502 73.1651 76.5168 73.4371 76.6415C73.7092 76.7662 73.9522 76.9463 74.1507 77.1702C74.3492 77.3941 74.4989 77.6569 74.59 77.9419L76.8471 85.0179Z" fill="#034ECA"/>
<path d="M25.433 45.174C24.782 44.024 23.667 43.199 22.334 42.88C21.001 42.56 19.559 42.774 18.325 43.473C17.091 44.172 16.166 45.298 15.754 46.606C15.341 47.913 15.588 49.491 16.239 50.641L20.994 48.187L25.433 45.174Z" fill="#4386F5"/>
<path fill-rule="evenodd" clip-rule="evenodd" d="M25.39 45.103C32.272 56.497 46.679 61.372 59.27 55.991L63.473 65.827C45.91 73.332 25.835 66.527 16.234 50.634L25.389 45.104L25.39 45.103Z" fill="url(#paint0_linear_181_1924)"/>
<path d="M23.378 85.0179C23.2677 85.3649 23.2909 85.7406 23.443 86.0714C23.5951 86.4022 23.8651 86.6644 24.2003 86.8066C24.5355 86.9488 24.9117 86.9608 25.2553 86.8403C25.5989 86.7198 25.8851 86.4754 26.058 86.1549L29.58 79.6169C29.7217 79.3534 29.8069 79.0632 29.8301 78.7648C29.8533 78.4665 29.8141 78.1666 29.7149 77.8843C29.6157 77.602 29.4587 77.3434 29.2539 77.1252C29.0491 76.907 28.8011 76.7339 28.5257 76.617C28.2502 76.5 27.9534 76.4418 27.6542 76.446C27.355 76.4502 27.0599 76.5168 26.7879 76.6415C26.5159 76.7662 26.2729 76.9463 26.0743 77.1702C25.8758 77.3941 25.7262 77.6569 25.635 77.9419L23.378 85.0179Z" fill="#034ECA"/>
<path d="M41.347 23.3699C41.8962 21.8608 43.0225 20.6318 44.4779 19.9531C45.9334 19.2744 47.5989 19.2017 49.108 19.7509C50.617 20.3002 51.8461 21.4264 52.5248 22.8819C53.2035 24.3374 53.2762 26.0028 52.727 27.5119L34.957 76.3319C34.6922 77.0884 34.28 77.7848 33.7441 78.3808C33.2081 78.9767 32.5592 79.4604 31.835 79.8036C31.1107 80.1469 30.3255 80.3429 29.5249 80.3804C28.7243 80.4179 27.9243 80.296 27.1711 80.022C26.418 79.7479 25.7267 79.327 25.1375 78.7837C24.5482 78.2404 24.0727 77.5856 23.7384 76.8571C23.4042 76.1287 23.2179 75.3411 23.1903 74.5401C23.1628 73.7391 23.2946 72.9406 23.578 72.1909L41.347 23.3699Z" fill="#4285F4"/>
<path d="M53.924 12.35C53.9322 11.8446 53.8397 11.3427 53.652 10.8735C53.4643 10.4042 53.1851 9.97704 52.8306 9.61679C52.4762 9.25653 52.0535 8.97042 51.5874 8.77513C51.1213 8.57983 50.6209 8.47925 50.1155 8.47925C49.6101 8.47925 49.1098 8.57983 48.6436 8.77513C48.1775 8.97042 47.7549 9.25653 47.4004 9.61679C47.046 9.97704 46.7667 10.4042 46.579 10.8735C46.3913 11.3427 46.2988 11.8446 46.307 12.35V19.577C46.2988 20.0823 46.3913 20.5842 46.579 21.0534C46.7667 21.5227 47.046 21.9499 47.4004 22.3101C47.7549 22.6704 48.1775 22.9565 48.6436 23.1518C49.1098 23.3471 49.6101 23.4477 50.1155 23.4477C50.6209 23.4477 51.1213 23.3471 51.5874 23.1518C52.0535 22.9565 52.4762 22.6704 52.8306 22.3101C53.1851 21.9499 53.4643 21.5227 53.652 21.0534C53.8397 20.5842 53.9322 20.0823 53.924 19.577V12.35Z" fill="url(#paint1_linear_181_1924)"/>
<path d="M47.382 27.4559C46.8556 25.97 46.9365 24.3365 47.6071 22.9099C48.2778 21.4833 49.4841 20.3789 50.9642 19.8364C52.4443 19.2939 54.0786 19.3571 55.5124 20.0123C56.9461 20.6675 58.0635 21.8618 58.622 23.3359L76.544 72.2479C76.8284 72.989 76.9626 73.7792 76.9387 74.5726C76.9148 75.366 76.7334 76.1467 76.4049 76.8694C76.0765 77.592 75.6076 78.2421 75.0256 78.7818C74.4435 79.3215 73.76 79.7401 73.0146 80.0132C72.2693 80.2862 71.4771 80.4083 70.6842 80.3724C69.8912 80.3364 69.1134 80.1431 68.3958 79.8037C67.6783 79.4643 67.0354 78.9855 66.5046 78.3953C65.9738 77.8051 65.5657 77.1153 65.304 76.3659L47.382 27.4559Z" fill="url(#paint2_linear_181_1924)"/>
<path d="M50.0179 34.1279C51.9864 34.1279 53.8742 33.346 55.2661 31.9541C56.658 30.5622 57.4399 28.6744 57.4399 26.7059C57.4399 24.7375 56.658 22.8497 55.2661 21.4578C53.8742 20.0659 51.9864 19.2839 50.0179 19.2839C48.0495 19.2839 46.1617 20.0659 44.7698 21.4578C43.3779 22.8497 42.5959 24.7375 42.5959 26.7059C42.5959 28.6744 43.3779 30.5622 44.7698 31.9541C46.1617 33.346 48.0495 34.1279 50.0179 34.1279Z" fill="white"/>
<path fill-rule="evenodd" clip-rule="evenodd" d="M50.0179 21.2371C48.5675 21.2371 47.1764 21.8133 46.1508 22.8389C45.1251 23.8645 44.5489 25.2556 44.5489 26.7061C44.5489 28.1565 45.1251 29.5476 46.1508 30.5732C47.1764 31.5989 48.5675 32.1751 50.0179 32.1751C51.4684 32.1751 52.8595 31.5989 53.8851 30.5732C54.9107 29.5476 55.4869 28.1565 55.4869 26.7061C55.4869 25.2556 54.9107 23.8645 53.8851 22.8389C52.8595 21.8133 51.4684 21.2371 50.0179 21.2371ZM40.6429 26.7061C40.6429 24.2197 41.6307 21.8351 43.3888 20.0769C45.147 18.3188 47.5315 17.3311 50.0179 17.3311C52.5043 17.3311 54.8889 18.3188 56.6471 20.0769C58.4052 21.8351 59.3929 24.2197 59.3929 26.7061C59.3929 29.1925 58.4052 31.577 56.6471 33.3352C54.8889 35.0933 52.5043 36.0811 50.0179 36.0811C47.5315 36.0811 45.147 35.0933 43.3888 33.3352C41.6307 31.577 40.6429 29.1925 40.6429 26.7061Z" fill="#202124"/>
<path d="M73.445 62.2559C73.4921 62.2306 73.5321 62.2078 73.5792 62.1825C73.852 62.0259 74.1223 61.8622 74.3874 61.6843C74.8472 61.3785 75.2798 61.0424 75.6807 60.6857C76.0281 60.3808 76.3534 60.0599 76.6568 59.7229C77.0458 59.29 77.4101 58.8339 77.7402 58.3501C78.1435 57.7588 78.4887 57.1406 78.7923 56.4972C78.9182 56.2254 79.0343 55.9491 79.1336 55.6709C79.3618 55.0633 79.544 54.4404 79.6732 53.8047C79.6829 53.8092 79.69 53.8066 79.6997 53.8111C80.1976 53.8942 80.691 53.9871 81.1889 54.0702C81.6726 54.1585 82.1536 54.2397 82.6444 54.3254C82.9884 54.3845 83.3421 54.448 83.6861 54.507C83.7728 54.5236 83.8471 54.5285 83.933 54.5211C84.1553 54.512 84.371 54.4409 84.5489 54.3111C84.5934 54.2787 84.6379 54.2462 84.6727 54.2093C84.7146 54.1697 84.7494 54.1328 84.7815 54.0887C84.8994 53.9488 84.9802 53.774 85.0126 53.5768C85.0457 53.4035 85.038 53.229 84.9922 53.0605C84.9733 52.9869 84.9498 52.923 84.9166 52.8546C84.8887 52.8004 84.8607 52.7462 84.8283 52.7017C84.7056 52.5211 84.5339 52.3827 84.3255 52.2981C84.2505 52.2692 84.1683 52.243 84.0914 52.2309C83.7474 52.1719 83.3937 52.1084 83.0497 52.0493L81.5941 51.7941C81.0962 51.7109 80.6029 51.6181 80.105 51.535C80.0519 51.5223 79.9944 51.5192 79.9414 51.5064C79.9425 51.4657 79.9437 51.425 79.9449 51.3843C79.9622 49.8952 79.7132 48.3831 79.1683 46.899C79.1527 46.8564 79.1397 46.8209 79.124 46.7783C78.6275 45.4699 77.9362 44.2894 77.089 43.2548C76.9897 43.1381 76.8905 43.0214 76.7912 42.9048C76.826 42.8678 76.8582 42.8238 76.893 42.7868C77.2188 42.4013 77.5349 42.0113 77.8607 41.6257C78.1723 41.2454 78.4865 40.8722 78.8052 40.4892C79.0293 40.2216 79.2579 39.9443 79.4819 39.6767C79.5373 39.608 79.5785 39.5446 79.617 39.474C79.7211 39.2746 79.7598 39.0509 79.7391 38.8409C79.7325 38.7789 79.7187 38.7195 79.7076 38.6672C79.6886 38.5936 79.6651 38.5297 79.632 38.4613C79.5578 38.3032 79.4507 38.1652 79.3134 38.0545C79.1637 37.9321 78.989 37.8512 78.806 37.8137C78.7529 37.8009 78.7025 37.7953 78.645 37.7922C78.5874 37.7892 78.5396 37.7906 78.4847 37.7946C78.2676 37.8179 78.0617 37.8936 77.8793 38.0331C77.8161 38.0804 77.7581 38.142 77.7001 38.2036C77.4761 38.4712 77.2475 38.7485 77.0234 39.0161C76.7118 39.3964 76.3976 39.7697 76.0789 40.1526C75.7531 40.5381 75.437 40.9282 75.1112 41.3137L75.1067 41.3234C74.6338 40.9572 74.1403 40.6226 73.6191 40.3225C73.3122 40.145 72.9937 39.9799 72.6734 39.8317C72.03 39.528 71.3623 39.2896 70.6722 39.0998C70.1075 38.9446 69.5417 38.83 68.9579 38.7543C68.5085 38.6936 68.0528 38.6595 67.5907 38.6519C67.0472 38.6419 66.4999 38.6656 65.9585 38.7274C65.6484 38.7607 65.3364 38.8108 65.0199 38.8706C64.9676 38.8817 64.9224 38.8902 64.8701 38.9014C64.6892 38.9356 64.511 38.9768 64.3256 39.0207L72.9422 62.4889C73.1198 62.4237 73.2824 62.3398 73.445 62.2559Z" fill="#34A853"/>
<path d="M74.1348 55.6853C74.6193 56.0392 75.3696 55.8443 75.8014 55.2426C76.2429 54.6453 76.2004 53.8712 75.7159 53.5173C75.2314 53.1634 74.4811 53.3583 74.0493 53.96C73.6078 54.5572 73.6503 55.3313 74.1348 55.6853Z" fill="#202124"/>
<path d="M70.705 44.8734C71.428 45.043 72.1218 44.7158 72.2621 44.1324C72.4025 43.5491 71.934 42.9314 71.2109 42.7618C70.4879 42.5921 69.7941 42.9193 69.6538 43.5027C69.5134 44.0861 69.9864 44.694 70.705 44.8734Z" fill="#202124"/>
<defs>
<linearGradient id="paint0_linear_181_1924" x1="46.209" y1="61.081" x2="64.764" y2="59.616" gradientUnits="userSpaceOnUse">
<stop stop-color="#4285F4"/>
</linearGradient>
<linearGradient id="paint1_linear_181_1924" x1="50.115" y1="12.802" x2="53.468" y2="15.818" gradientUnits="userSpaceOnUse">
<stop stop-color="#4285F4"/>
</linearGradient>
<linearGradient id="paint2_linear_181_1924" x1="53.866" y1="32.5309" x2="64.004" y2="53.7199" gradientUnits="userSpaceOnUse">
<stop offset="1" stop-color="#4285F4"/>
</linearGradient>
</defs>
</svg>
