<svg width="100" height="100" viewBox="0 0 100 100" fill="none" xmlns="http://www.w3.org/2000/svg">
<rect width="100" height="100" rx="24" fill="white"/>
<path d="M12.5414 61.134C8.18457 37.9702 19.6989 15.6301 46.1264 12.6582C42.4821 8.76408 37.5035 8.73482 35.2128 9.20852C31.1683 10.4975 31.2953 13.1147 26.7075 16.4954C22.1467 19.1004 19.8561 17.1055 16.5336 19.806C13.2184 22.4863 15.5317 28.6394 14.1412 29.8357C12.761 32.2281 8.47952 34.3593 7.70015 37.3811C7.05604 41.2456 9.44845 44.0061 9.35643 47.3186C9.63248 50.0791 6.60829 51.64 7.04279 53.8773C8.34426 57.5324 10.8528 59.7323 12.0354 60.7463C12.3066 60.9374 12.593 61.4081 12.5414 61.134Z" fill="#FF0090"/>
<path d="M59.5662 29.0689C58.6007 29.0689 57.8179 28.2861 57.8179 27.3206C57.8179 26.3551 58.6007 25.5723 59.5662 25.5723C60.5317 25.5723 61.3145 26.3551 61.3145 27.3206C61.3145 28.2861 60.5317 29.0689 59.5662 29.0689ZM13.5615 63.6605C9.37458 43.5288 22.3306 26.7072 47.4201 34.9886C62.1421 43.6011 80.6616 43.0403 81.4966 37.4731C83.558 30.799 72.111 17.0456 54.9961 13.457C21.0424 6.83187 2.73764 43.5288 13.5615 63.6605Z" fill="url(#paint0_radial_175_511)"/>
<path d="M69.2585 65.9058C74.3002 66.452 79.0859 65.242 83.5209 61.6271C76.8207 69.1006 68.4428 72.8582 58.8302 73.8806C63.4199 77.7826 67.846 79.5403 72.0804 78.788C60.3145 82.0347 50.457 78.461 38.4657 66.5194C37.8377 69.7341 41.233 74.7426 44.7325 77.9398C24.4276 69.1369 22.6475 41.7147 47.4073 34.9693C21.7408 22.6378 7.22789 46.5979 14.3583 66.2355C21.335 81.3605 39.9263 93.0041 60.3024 90.4434C70.1998 89.2311 84.9794 82.4074 91.0173 66.2355C86.7619 70.0542 79.1554 73.38 75.761 73.6351C87.2494 67.8937 93.451 58.1378 91.7103 44.8037C89.3306 50.4691 86.1908 54.8202 82.2634 57.8085C90.6061 44.8037 89.1745 38.082 82.9995 30.6946C87.4163 42.8406 81.7028 56.3211 69.2585 65.9058Z" fill="url(#paint1_radial_175_511)"/>
<path d="M63.3628 79.8987C62.4911 79.7358 65.3389 81.0522 59.8332 79.5947C54.3275 78.1372 48.7215 76.7326 38.4657 66.5193C37.8377 69.734 41.233 74.7425 44.7325 77.9397C54.1795 84.5282 47.7548 81.4467 62.1489 86.4228C63.3039 84.1236 63.3628 82.0806 63.3628 79.8987Z" fill="url(#paint2_linear_175_511)"/>
<path d="M45.0612 28.163C45.0612 28.163 46.3127 26.3159 46.7998 25.4828C47.3967 24.4619 48.3135 22.6012 48.3135 22.6012C48.3135 22.6012 38.6806 19.4584 36.3166 19.075C28.9679 20.9825 28.9412 24.0613 33.0497 28.7738C33.5068 29.2983 45.0612 28.163 45.0612 28.163Z" fill="url(#paint3_linear_175_511)"/>
<defs>
<radialGradient id="paint0_radial_175_511" cx="0" cy="0" r="1" gradientUnits="userSpaceOnUse" gradientTransform="translate(5625.02 1942.62) scale(6406.45 4582.83)">
<stop stop-color="#F80090"/>
<stop offset="1" stop-color="#4D008E"/>
</radialGradient>
<radialGradient id="paint1_radial_175_511" cx="0" cy="0" r="1" gradientUnits="userSpaceOnUse" gradientTransform="translate(5474.09 295.049) scale(6493.61 4912.16)">
<stop stop-color="#57008E"/>
<stop offset="0.291746" stop-color="#5C008E"/>
<stop offset="1" stop-color="#F80090"/>
</radialGradient>
<linearGradient id="paint2_linear_175_511" x1="493.858" y1="66.5193" x2="1641.7" y2="1996.92" gradientUnits="userSpaceOnUse">
<stop stop-color="#F70090"/>
<stop offset="0.669713" stop-color="#E50090"/>
<stop offset="0.827148" stop-color="#D6008F" stop-opacity="0.2"/>
<stop offset="1" stop-color="#C10090" stop-opacity="0"/>
</linearGradient>
<linearGradient id="paint3_linear_175_511" x1="1199.69" y1="723.014" x2="1033.11" y2="403.974" gradientUnits="userSpaceOnUse">
<stop stop-color="#B2008F" stop-opacity="0.15134"/>
<stop offset="0.400351" stop-color="#F70090" stop-opacity="0.4"/>
<stop offset="0.648996" stop-color="#F60090" stop-opacity="0.891668"/>
<stop offset="1" stop-color="#FF0090"/>
</linearGradient>
</defs>
</svg>
