<svg width="100" height="100" viewBox="0 0 100 100" fill="none" xmlns="http://www.w3.org/2000/svg">
<rect width="100" height="100" rx="24" fill="white"/>
<g clip-path="url(#clip0_175_490)">
<path d="M49.0791 23.7499C45.1515 26.5122 40.7001 29.6431 38.315 34.823C34.1722 43.8601 46.7921 53.7176 47.3315 54.1328C47.4568 54.2293 47.6069 54.2774 47.7565 54.2774C47.9154 54.2774 48.0744 54.2231 48.2036 54.1149C48.4541 53.9054 48.5251 53.5494 48.3747 53.2596C48.3291 53.1716 43.7992 44.3727 43.9675 38.0605C44.0271 35.8619 47.1039 33.3678 50.3611 30.7274C53.3444 28.3088 56.7262 25.5677 58.7048 22.3611C63.0484 15.3028 58.2207 8.36231 58.1714 8.29291C57.9796 8.02363 57.6257 7.92618 57.323 8.05883C57.0207 8.19231 56.8532 8.51919 56.9223 8.84243C56.932 8.88841 57.8709 13.4781 55.2584 18.2067C54.1823 20.1608 51.8176 21.8239 49.0791 23.7499Z" fill="#F89A16"/>
<path d="M65.6265 26.8624C65.9036 26.6538 65.9849 26.2731 65.8174 25.9693C65.6496 25.6655 65.2843 25.5315 64.9599 25.6547C64.2927 25.9083 48.6213 31.9492 48.6213 39.2481C48.6213 44.2795 50.7705 46.9375 52.3399 48.8785C52.9555 49.6399 53.4869 50.2973 53.662 50.8586C54.1551 52.4761 52.987 55.3996 52.4958 56.3898C52.3542 56.6743 52.4235 57.0193 52.6644 57.2271C52.7946 57.3395 52.9571 57.3966 53.1198 57.3966C53.2583 57.3966 53.3974 57.3555 53.5176 57.2718C53.787 57.0845 60.103 52.619 58.9702 47.2389C58.5482 45.194 57.5433 43.6998 56.6566 42.3813C55.283 40.3385 54.2909 38.8629 55.796 36.1376C57.5594 32.9587 65.5456 26.9229 65.6265 26.8624Z" fill="#F89A16"/>
<path d="M24.8331 57.5121C24.5645 58.3164 24.6914 59.1143 25.1995 59.8202C26.8984 62.1788 32.916 63.4774 42.1445 63.4774C42.145 63.4774 42.1453 63.4774 42.1457 63.4774C43.3961 63.4774 44.7162 63.4528 46.0684 63.4043C60.8231 62.8762 66.2957 58.2796 66.5215 58.0842C66.7675 57.8712 66.8333 57.5165 66.6804 57.2297C66.5273 56.943 66.1974 56.7989 65.8822 56.8857C60.6857 58.3045 50.9825 58.8082 44.2522 58.8082C36.7212 58.8082 32.8859 58.2656 31.9469 57.865C32.4287 57.2034 35.4004 56.0221 39.0828 55.2977C39.4348 55.2287 39.6767 54.9036 39.6418 54.5467C39.6069 54.1897 39.3071 53.9175 38.9483 53.9175C36.7898 53.9175 25.9647 54.0908 24.8331 57.5121Z" fill="#5283A2"/>
<path d="M74.2054 52.7776C71.1621 52.7776 68.2763 54.3029 68.1548 54.3675C67.8734 54.5183 67.7306 54.841 67.8078 55.1511C67.8853 55.4607 68.1637 55.6784 68.483 55.6787C68.5476 55.6787 74.9745 55.7314 75.5566 59.4035C76.0722 62.5714 69.4756 67.7043 66.8902 69.4149C66.611 69.5997 66.5026 69.9566 66.6322 70.2654C66.7426 70.5282 66.9985 70.6926 67.2744 70.6926C67.3225 70.6926 67.3713 70.6876 67.4198 70.6773C68.0334 70.546 82.4287 67.3737 80.9066 58.9924C79.9781 53.8559 76.7498 52.7776 74.2054 52.7776Z" fill="#5283A2"/>
<path d="M64.3332 68.3892C64.3833 68.1207 64.2716 67.8476 64.0482 67.6907L60.5965 65.273C60.4282 65.1552 60.2155 65.1181 60.018 65.1704C59.9819 65.1796 56.3724 66.1285 51.1319 66.7104C49.0521 66.9437 46.7225 67.0668 44.3947 67.0668C39.1555 67.0668 35.7299 66.4513 35.2311 65.9997C35.165 65.8729 35.1859 65.8153 35.1977 65.7832C35.2883 65.5312 35.7741 65.2317 36.0872 65.1132C36.433 64.9852 36.6195 64.6096 36.5119 64.257C36.4046 63.9039 36.0409 63.6962 35.682 63.7824C32.2195 64.6179 30.5265 65.7864 30.6497 67.2551C30.8685 69.8592 36.9002 71.1958 41.9994 71.5491C42.7327 71.5993 43.5257 71.6247 44.356 71.6247C44.3565 71.6247 44.3568 71.6247 44.3573 71.6247C52.8364 71.6247 63.7065 68.9642 63.8151 68.9372C64.0805 68.8724 64.2829 68.6581 64.3332 68.3892Z" fill="#5283A2"/>
<path d="M38.311 73.978C38.5725 73.808 38.6883 73.4848 38.5955 73.1871C38.5031 72.8895 38.2247 72.6939 37.9119 72.6981C37.4479 72.7103 33.3715 72.8943 33.0861 75.4896C32.9998 76.2652 33.2219 76.974 33.7467 77.5957C35.2103 79.3302 39.1612 80.3612 45.8229 80.7474C46.611 80.7947 47.4115 80.8184 48.2026 80.8184C56.6719 80.8184 62.3759 78.1666 62.6148 78.0537C62.8464 77.9442 62.9991 77.7166 63.0127 77.4609C63.0263 77.2052 62.8987 76.9627 62.6802 76.829L58.3181 74.1661C58.1667 74.0738 57.9856 74.0433 57.8129 74.0787C57.7854 74.0845 55.0157 74.6589 50.8359 75.2263C50.045 75.3339 49.0546 75.3885 47.8925 75.3885C43.7171 75.3885 39.073 74.7064 38.1823 74.2596C38.1694 74.1763 38.1858 74.0704 38.311 73.978Z" fill="#5283A2"/>
<path d="M44.2554 88.8249C63.655 88.8085 74.0671 85.3585 76.0729 83.1875C76.783 82.4195 76.8596 81.6924 76.7994 81.2174C76.6503 80.0486 75.5856 79.3331 75.4649 79.2554C75.1738 79.0681 74.783 79.1171 74.5558 79.3791C74.3292 79.6411 74.3239 80.0239 74.5514 80.2857C74.6737 80.4431 74.7444 80.7065 74.3867 81.0646C73.5848 81.8135 65.4973 84.0868 52.0316 84.7698C50.187 84.8656 48.2522 84.9144 46.2814 84.9147C34.2248 84.9147 25.4012 83.2632 24.2429 82.301C24.6894 81.6595 27.8105 80.6347 31.1296 80.0549C31.5037 79.9897 31.7563 79.6372 31.6984 79.262C31.6405 78.887 31.2947 78.6289 30.9166 78.6778C30.823 78.6906 30.5052 78.7095 30.1374 78.7321C24.6608 79.0665 18.3321 79.8117 18.0019 82.6335C17.9016 83.4933 18.1571 84.2739 18.7616 84.9532C20.2406 86.6151 24.4918 88.8246 44.2547 88.8246C44.255 88.8249 44.255 88.8249 44.2554 88.8249Z" fill="#5283A2"/>
<path d="M79.8833 83.7994C79.609 83.6725 79.285 83.7366 79.0804 83.9574C79.0521 83.9881 76.1353 87.038 67.3657 88.829C64.0083 89.5017 57.7063 89.8429 48.6347 89.8429C39.5462 89.8429 30.8979 89.4853 30.8117 89.4816C30.4505 89.464 30.1415 89.7267 30.0924 90.0823C30.0431 90.4375 30.2722 90.7726 30.621 90.8556C30.7109 90.8768 39.7743 93.0002 52.1664 93.0002C58.1099 93.0002 63.8936 92.5176 69.357 91.565C79.544 89.7791 80.2572 84.7279 80.2826 84.5137C80.3181 84.2144 80.1571 83.9262 79.8833 83.7994Z" fill="#5283A2"/>
</g>
<defs>
<clipPath id="clip0_175_490">
<rect width="85" height="85" fill="white" transform="translate(7 8)"/>
</clipPath>
</defs>
</svg>
