<svg width="100" height="100" viewBox="0 0 100 100" fill="none" xmlns="http://www.w3.org/2000/svg">
<rect width="100" height="100" rx="24" fill="#F05133"/>
<path d="M89.2407 46.9141L54.0849 11.76C52.0607 9.73494 48.7772 9.73494 46.7513 11.76L39.4518 19.0613L48.7115 28.321C50.8637 27.5937 53.3313 28.0818 55.0462 29.7976C56.7716 31.5239 57.2553 34.0125 56.5096 36.1726L65.4355 45.0976C67.5955 44.3527 70.0859 44.8347 71.8105 46.5618C74.2203 48.9716 74.2203 52.8764 71.8105 55.2879C69.3989 57.6986 65.4942 57.6986 63.0818 55.2879C61.2696 53.474 60.8209 50.8101 61.7402 48.5773L53.4154 40.2534V62.158C54.0025 62.449 54.5572 62.8363 55.0462 63.3252C57.456 65.735 57.456 69.6398 55.0462 72.0522C52.6364 74.4611 48.729 74.4611 46.321 72.0522C43.9112 69.6389 43.9112 65.7342 46.321 63.3252C46.9169 62.7302 47.6065 62.2798 48.3426 61.9784V39.8696C47.6065 39.5682 46.9186 39.1222 46.321 38.5228C44.4957 36.6983 44.0567 34.0186 44.9925 31.7771L35.8642 22.647L11.7575 46.7511C9.73243 48.778 9.73243 52.0614 11.7575 54.0865L46.9151 89.2415C48.9393 91.2666 52.2219 91.2666 54.2488 89.2415L89.2407 54.2495C91.2658 52.2244 91.2658 48.9392 89.2407 46.9141Z" fill="white"/>
</svg>
