<svg width="100" height="100" viewBox="0 0 100 100" fill="none" xmlns="http://www.w3.org/2000/svg">
<rect width="100" height="100" rx="24" fill="#AA755F"/>
<path d="M78.6667 13H20.3333C15.75 13 12 16.75 12 21.3333V79.6667C12 84.25 15.75 88 20.3333 88H78.6667C83.25 88 87 84.25 87 79.6667V21.3333C87 16.75 83.25 13 78.6667 13ZM65.75 29.25C65.75 29.25 62.8333 28 61.5833 28C59.0833 27.5833 57.4167 28.4167 56.5833 32.5833L49.5 70.5C48.6667 73.8333 47.4167 76.3333 45.3333 78C43.6667 79.25 42 79.6667 39.9167 79.6667C36.5833 79.6667 31.5833 77.5833 31.5833 77.5833L33.6667 71.75C33.6667 71.75 37 73 37.8333 73C39.0833 73.4167 39.9167 73 40.75 72.5833C41.5833 72.1667 42 70.9167 42.4167 69.6667L49.0833 31.3333C49.5 28 51.1667 25.5 53.25 23.4167C55.75 21.75 58.6667 21.3333 62 21.75C64.9167 22.1667 68.25 23.8333 68.25 23.8333L65.75 29.25Z" fill="white"/>
</svg>
