<svg width="100" height="100" viewBox="0 0 100 100" fill="none" xmlns="http://www.w3.org/2000/svg">
<rect width="100" height="100" rx="24" fill="#AA755F"/>
<path d="M80 70C79.48 70 78.96 70 78.44 70.16L72 57.16C73.8 55.36 75 52.84 75 50C75 44.48 70.52 40 65 40C64.48 40 64 40 63.44 40.16L56.92 27.16C58.84 25.36 60 22.84 60 20C60 14.48 55.52 10 50 10C44.48 10 40 14.48 40 20C40 22.84 41.16 25.36 43.04 27.16L36.56 40.16C36 40 35.52 40 35 40C29.48 40 25 44.48 25 50C25 52.84 26.2 55.36 28 57.16L21.56 70.16C21.04 70 20.52 70 20 70C14.48 70 10 74.48 10 80C10 85.52 14.48 90 20 90C25.52 90 30 85.52 30 80C30 77.2 28.84 74.64 26.96 72.84L33.44 59.84C34 60 34.48 60 35 60C35.52 60 36 60 36.56 59.84L43.08 72.84C41.2 74.64 40 77.2 40 80C40 85.52 44.48 90 50 90C55.52 90 60 85.52 60 80C60 74.48 55.52 70 50 70C49.48 70 48.96 70 48.44 70.16L42 57.16C43.84 55.36 45 52.84 45 50C45 47.16 43.84 44.64 42 42.84L48.44 29.84C48.96 30 49.48 30 50 30C50.52 30 51.04 30 51.56 29.84L58 42.84C56.2 44.64 55 47.2 55 50C55 55.52 59.48 60 65 60C65.52 60 66 60 66.56 59.84L73.08 72.84C71.2 74.64 70 77.2 70 80C70 85.52 74.48 90 80 90C85.52 90 90 85.52 90 80C90 74.48 85.52 70 80 70Z" fill="white"/>
</svg>
