<svg width="100" height="100" viewBox="0 0 100 100" fill="none" xmlns="http://www.w3.org/2000/svg">
<rect width="100" height="100" rx="24" fill="white"/>
<g clip-path="url(#clip0_169_84)">
<path d="M48.7455 8.0782C48.754 8.0527 48.7557 8.0255 48.7523 8H50.1616C50.1548 8.0272 50.1565 8.0544 50.1667 8.0799C49.6924 8.3077 49.2198 8.3077 48.7455 8.0782Z" fill="#94F1C6"/>
<path d="M86.375 28.7791C87.378 30.1816 87.8812 31.7456 87.8812 33.4677C87.8812 44.6401 87.8948 55.8125 87.8744 66.9866C87.8676 70.3866 86.3631 72.9978 83.4391 74.7301C73.8018 80.4353 64.1526 86.1201 54.5068 91.8066C52.9615 92.7178 51.2836 93.0952 49.4952 92.9813C50.0664 92.7841 50.0239 92.3166 50.0239 91.8423C50.0171 86.9548 50.0205 82.0673 50.0205 77.1781C50.0205 76.9146 49.9984 76.6494 50.0681 76.391C50.1497 76.1615 50.3384 76.0986 50.556 76.0884C51.3686 76.0476 52.1013 75.762 52.7898 75.354C57.305 72.6714 61.8372 70.0143 66.3575 67.3402C67.6699 66.5633 69.0061 65.8204 70.2964 65.0095C71.8468 64.0337 72.7597 62.6227 72.7631 60.7493C72.7784 53.9255 72.7631 47.1017 72.7767 40.2779C72.7784 39.4143 72.5914 38.6238 72.1902 37.8724C72.1137 37.7296 72.0321 37.5902 72.0253 37.4219C72.0389 37.1958 72.2174 37.104 72.3789 37.0071C76.0492 34.8073 79.7195 32.6109 83.3983 30.4247C84.2177 29.9385 85.032 29.4455 85.8497 28.9576C86.0112 28.8624 86.1659 28.7349 86.375 28.7825V28.7791Z" fill="#1F86FB"/>
<path d="M50.1752 76.2873C50.1701 77.7255 50.1616 79.1637 50.1616 80.6002C50.1599 84.4745 50.1616 88.3488 50.1599 92.2231C50.1599 92.9286 50.1514 92.9286 49.4952 92.9796C48.0689 92.8793 46.7582 92.4322 45.5121 91.7267C35.3988 86.0062 25.2804 80.2942 15.1603 74.5873C13.3022 73.5401 12.2295 71.988 12.0017 69.8596C12.0051 69.7576 12.0136 69.6556 12.0136 69.5519C12.0136 57.5652 12.0136 45.5768 12.0136 33.5901C12.0136 33.4881 12.0051 33.3861 12.0017 33.2824C12.0986 32.0754 12.3111 30.8973 12.8976 29.8144C13.0574 29.7464 13.1815 29.8365 13.3073 29.9079C16.301 31.5892 19.2998 33.262 22.2935 34.9433C23.8932 35.8409 25.4912 36.7419 27.0994 37.6259C27.266 37.7177 27.4445 37.7942 27.5516 37.9659C27.5635 38.0135 27.5635 38.0594 27.5533 38.107C27.232 38.9077 27.1028 39.7322 27.1045 40.5992C27.1198 47.7018 27.1147 54.8044 27.1113 61.907C27.1113 63.2415 27.6621 64.253 28.8249 64.916C31.9342 66.6891 35.0588 68.4367 38.1732 70.2013C41.2621 71.9506 44.3544 73.6948 47.4484 75.4373C48.0927 75.8011 48.7829 76.0425 49.5309 76.0833C49.7366 76.0952 49.9389 76.1258 50.1242 76.2295L50.1752 76.2839V76.2873Z" fill="#003144"/>
<path d="M27.5142 37.9726C25.2379 36.7044 22.9599 35.4362 20.6836 34.1663C18.0877 32.7179 15.4918 31.2678 12.8959 29.8177C13.547 28.2911 14.6435 27.1674 16.0528 26.3327C18.2713 25.0186 20.4932 23.713 22.7134 22.4023C30.1186 18.0333 37.5238 13.6643 44.929 9.29533C46.1088 8.60003 47.377 8.18353 48.7438 8.07983H50.165C51.3941 8.17843 52.5586 8.50483 53.6313 9.11003C63.4505 14.6503 73.2663 20.194 83.0804 25.7411C84.4115 26.4942 85.542 27.4768 86.3733 28.779C83.3779 30.5657 80.3791 32.349 77.3854 34.1374C75.6123 35.1965 73.846 36.2658 72.0763 37.3317C72.0389 37.364 71.9981 37.3691 71.9556 37.347C71.7414 37.2076 71.6122 36.9866 71.449 36.7996C70.6976 35.9343 69.6861 35.443 68.7171 34.8973C66.3133 33.5441 63.9146 32.179 61.5091 30.8258C58.4525 29.1054 55.4095 27.3612 52.3444 25.6527C50.4506 24.597 48.5721 24.6769 46.7038 25.7819C40.968 29.1751 35.2271 32.5615 29.4845 35.9428C28.8402 36.3219 28.3149 36.82 27.9001 37.4422C27.7794 37.6224 27.6995 37.8366 27.5125 37.9692L27.5142 37.9726Z" fill="#00DF79"/>
<path d="M72.0015 37.3233C72.027 37.3284 72.0525 37.3301 72.078 37.3318C72.3381 37.9489 72.7036 38.5218 72.826 39.1967C72.86 39.3854 72.8923 39.569 72.8923 39.7594C72.8923 46.8484 72.9076 53.9374 72.877 61.0264C72.8719 62.3847 72.2327 63.5271 71.2246 64.44C70.0856 65.4753 68.6712 66.0856 67.3741 66.8693C64.3447 68.7019 61.2847 70.4835 58.2349 72.2838C56.421 73.3548 54.6105 74.4326 52.7881 75.4917C52.0741 75.9065 51.3176 76.2142 50.4676 76.2074C50.3707 76.2074 50.2721 76.2567 50.1735 76.2839L50.1344 76.289C50.0205 76.1377 50.0205 75.9592 50.0188 75.7841C50.0035 73.3344 49.8743 70.8881 49.9287 68.4384C49.9338 68.2344 49.9168 68.027 49.9848 67.8281C50.0409 67.687 50.1667 67.636 50.2976 67.619C51.1714 67.5102 51.8939 67.0478 52.6249 66.6143C56.1881 64.5063 59.7547 62.4034 63.323 60.3039C64.5657 59.5729 65.1964 58.5036 65.193 57.0416C65.1811 52.71 65.1794 48.3784 65.1964 44.0468C65.1998 43.2937 65.0672 42.5916 64.7493 41.9184C64.7493 41.7212 64.9108 41.6532 65.0383 41.5631C67.1633 40.0722 69.3971 38.7513 71.6292 37.4304C71.7431 37.3624 71.8536 37.2893 71.9981 37.3199L72.0015 37.3233Z" fill="#1D72B6"/>
<path d="M72.0015 37.3233C69.5773 38.787 67.131 40.2201 64.8088 41.847C64.7323 41.8402 64.6626 41.8096 64.6184 41.7484C63.9843 40.8491 63.0204 40.3901 62.1024 39.8716C58.7432 37.9761 55.3806 36.084 52.0282 34.1766C51.9772 34.1477 51.9228 34.1222 51.8735 34.0916C50.3656 33.1498 48.9257 33.2688 47.4161 34.1902C43.8971 36.3373 40.3288 38.3994 36.7741 40.487C36.0533 40.9103 35.409 41.3999 35.0027 42.1513C34.967 42.2159 34.9126 42.2669 34.8463 42.3026C34.6678 42.3434 34.5369 42.2363 34.4026 42.153C32.4374 40.9341 30.4518 39.7509 28.4288 38.6306C28.116 38.4572 27.7369 38.3722 27.5227 38.0407C27.5176 38.0186 27.5142 37.9948 27.5142 37.971C27.8644 37.0785 28.49 36.4138 29.2941 35.9327C31.8543 34.3993 34.4264 32.8863 36.9968 31.3699C40.2982 29.4217 43.5877 27.4548 46.9078 25.5423C48.8118 24.4458 50.7345 24.5733 52.6232 25.6664C54.143 26.5453 55.6798 27.397 57.2064 28.264C58.886 29.2177 60.5622 30.1765 62.2435 31.1268C63.9384 32.0856 65.6452 33.0206 67.3316 33.9947C68.4706 34.6526 69.6725 35.2051 70.7316 35.9973C71.2263 36.3679 71.6581 36.8031 72.0015 37.3216V37.3233Z" fill="#00C165"/>
<path d="M27.5227 38.0408C29.5321 39.1101 31.5143 40.227 33.4387 41.4408C33.8943 41.7281 34.3601 42.0018 34.8225 42.2823C34.9296 42.4013 34.8854 42.5339 34.8446 42.6563C34.6865 43.1255 34.6882 43.6066 34.6882 44.0928C34.6916 48.6998 34.6984 53.3085 34.6831 57.9155C34.6797 58.9797 35.1149 59.7192 36.0397 60.2411C39.5655 62.2301 43.0981 64.2106 46.6154 66.2149C47.1118 66.4988 47.6167 66.7691 48.1097 67.0581C48.5976 67.342 49.1229 67.5188 49.6788 67.6072C49.8216 67.6293 49.9763 67.6191 50.08 67.7517C50.0851 68.2039 50.0919 68.6578 50.097 69.11C50.1191 71.3285 50.1395 73.547 50.1582 75.7672C50.1582 75.9423 50.1429 76.1174 50.1344 76.2908C48.5398 76.2772 47.2342 75.4884 45.9133 74.7285C44.4309 73.8751 42.9349 73.0404 41.4474 72.1972C39.5383 71.116 37.6309 70.0297 35.7201 68.9502C34.2292 68.107 32.7366 67.2723 31.244 66.4325C30.3396 65.9225 29.4165 65.4414 28.5359 64.8923C27.5363 64.2684 26.994 63.3283 26.9923 62.1468C26.9804 54.762 26.9838 47.3789 26.9906 39.9941C26.9906 39.3022 27.1402 38.6375 27.5193 38.0408H27.5227Z" fill="#001719"/>
<path d="M50.08 67.7532C49.3762 67.7532 48.7285 67.556 48.1199 67.2109C44.0297 64.8955 39.9395 62.5801 35.8459 60.2698C34.9738 59.7785 34.5573 59.0509 34.559 58.0479C34.5675 53.4545 34.5675 48.8628 34.5573 44.2694C34.5573 43.5911 34.5964 42.9281 34.8225 42.2855C35.1863 41.478 35.8102 40.9289 36.5599 40.4869C40.2761 38.3024 43.9906 36.1145 47.6966 33.913C49.0294 33.1208 50.3418 33.1021 51.6848 33.8637C55.6016 36.0822 59.5218 38.2956 63.442 40.5073C64.02 40.8337 64.4467 41.3063 64.8071 41.8503C65.2185 42.4895 65.3324 43.1984 65.3324 43.9464C65.3256 48.3375 65.329 52.7269 65.3307 57.118C65.3307 58.5494 64.7051 59.6289 63.4845 60.3514C59.6289 62.6362 55.7648 64.9108 51.9058 67.1905C51.3414 67.5237 50.7362 67.7209 50.08 67.7566V67.7532Z" fill="#CFF0FE"/>
</g>
<defs>
<clipPath id="clip0_169_84">
<rect width="75.8863" height="85" fill="white" transform="translate(12 8)"/>
</clipPath>
</defs>
</svg>
